<?xml version="1.0" encoding="UTF-8" standalone="no"?>
<svg
   xmlns:dc="http://purl.org/dc/elements/1.1/"
   xmlns:cc="http://creativecommons.org/ns#"
   xmlns:rdf="http://www.w3.org/1999/02/22-rdf-syntax-ns#"
   xmlns:svg="http://www.w3.org/2000/svg"
   xmlns="http://www.w3.org/2000/svg"
   xmlns:sodipodi="http://sodipodi.sourceforge.net/DTD/sodipodi-0.dtd"
   xmlns:inkscape="http://www.inkscape.org/namespaces/inkscape"
   width="55"
   height="23"
   viewBox="0 0 55 23"
   version="1.1"
   id="svg3002"
   inkscape:version="0.48.4 r9939"
   sodipodi:docname="logo__ya.svg">
  <metadata
     id="metadata3017">
    <rdf:RDF>
      <cc:Work
         rdf:about="">
        <dc:format>image/svg+xml</dc:format>
        <dc:type
           rdf:resource="http://purl.org/dc/dcmitype/StillImage" />
      </cc:Work>
    </rdf:RDF>
  </metadata>
  <sodipodi:namedview
     pagecolor="#ffffff"
     bordercolor="#666666"
     borderopacity="1"
     objecttolerance="10"
     gridtolerance="10"
     guidetolerance="10"
     inkscape:pageopacity="0"
     inkscape:pageshadow="2"
     inkscape:window-width="1344"
     inkscape:window-height="750"
     id="namedview3015"
     showgrid="false"
     showborder="false"
     inkscape:zoom="6.8181818"
     inkscape:cx="27.5"
     inkscape:cy="17"
     inkscape:window-x="0"
     inkscape:window-y="0"
     inkscape:window-maximized="0"
     inkscape:current-layer="svg3002"
     borderlayer="true" />
  <defs
     id="defs3004" />
  <g
     id="Page-1"
     style="fill:none;stroke:none"
     transform="translate(0,-4)">
    <g
       id="Logo_ru_1">
      <g
         id="Yandex"
         transform="translate(0,4)">
        <path
           d="m 9.218,0.62 -2.946,0 c -2.895,0 -5.35,2.197 -5.35,6.461 0,2.559 1.189,4.445 3.308,5.376 L 0.276,19.59 c -0.13,0.232 0,0.413 0.206,0.413 l 1.835,0 c 0.155,0 0.259,-0.051 0.311,-0.181 l 3.592,-7.003 1.292,0 0,7.003 c 0,0.078 0.078,0.181 0.181,0.181 l 1.602,0 c 0.155,0 0.207,-0.077 0.207,-0.206 l 0,-18.919 C 9.502,0.697 9.399,0.62 9.218,0.62 l 0,0 z m -1.706,10.544 -1.085,0 c -1.706,0 -3.36,-1.24 -3.36,-4.342 0,-3.23 1.55,-4.548 3.127,-4.548 l 1.318,0 0,8.89 0,0 z"
           id="Fill-1"
           inkscape:connector-curvature="0"
           style="fill:#fa0b00" />
        <path
           d="m 18.273,7.045 -1.603,0 c -0.129,0 -0.206,0.103 -0.206,0.181 l 0,4.936 -2.972,0 0,-4.936 c 0,-0.129 -0.052,-0.181 -0.181,-0.181 l -1.603,0 c -0.129,0 -0.206,0.077 -0.206,0.181 l 0,12.56 c 0,0.13 0.051,0.207 0.18,0.207 l 1.629,0 c 0.103,0 0.181,-0.077 0.181,-0.207 l 0,-5.996 2.972,0 0,5.996 c 0,0.13 0.077,0.207 0.206,0.207 l 1.603,0 c 0.129,0 0.181,-0.103 0.181,-0.207 l 0,-12.56 c 0,-0.104 -0.078,-0.181 -0.181,-0.181"
           id="Fill-2"
           inkscape:connector-curvature="0"
           style="fill:#1a1918" />
        <path
           d="M 54.647,19.166 54.44,18.287 c -0.026,-0.077 -0.052,-0.103 -0.129,-0.103 -0.13,0 -0.827,0.284 -1.835,0.284 -1.965,0 -2.921,-1.886 -2.921,-4.884 0,-2.636 0.801,-5.247 2.145,-5.247 0.362,0 0.802,0.104 1.499,0.75 0.078,0.077 0.129,0.103 0.207,0.103 0.078,0 0.155,-0.052 0.233,-0.181 l 0.698,-1.137 c 0.051,-0.078 0.077,-0.155 0.077,-0.233 0,-0.103 -0.103,-0.18 -0.259,-0.258 -1.059,-0.543 -1.783,-0.646 -2.403,-0.646 -2.429,0 -4.316,2.894 -4.316,7.417 0,3.903 1.809,6.151 4.393,6.151 1.086,0 2.249,-0.517 2.714,-0.853 0.104,-0.077 0.129,-0.18 0.104,-0.284"
           id="Fill-3"
           inkscape:connector-curvature="0"
           style="fill:#1a1918" />
        <path
           d="m 43.456,12.886 3.102,-5.66 C 46.609,7.148 46.584,7.045 46.48,7.045 l -1.525,0 c -0.439,0 -0.594,0.155 -0.749,0.491 l -2.326,4.833 c -0.129,0.284 -0.259,0.465 -0.388,0.543 l 0,-5.686 c 0,-0.104 -0.051,-0.181 -0.155,-0.181 l -1.68,0 c -0.077,0 -0.155,0.077 -0.155,0.181 l 0,12.586 c 0,0.078 0.052,0.181 0.155,0.181 l 1.68,0 c 0.104,0 0.155,-0.077 0.155,-0.181 l 0,-6.487 c 0.078,0.052 0.129,0.129 0.181,0.233 l 2.946,6.047 c 0.156,0.311 0.388,0.388 0.724,0.388 l 1.654,0 c 0.103,0 0.129,-0.103 0.078,-0.181 l -3.619,-6.926"
           id="Fill-4"
           inkscape:connector-curvature="0"
           style="fill:#1a1918" />
        <path
           d="m 28.295,18.365 -0.31,0 c -0.388,0 -0.491,-0.155 -0.491,-0.465 l 0,-10.674 c 0,-0.129 -0.052,-0.181 -0.155,-0.181 l -5.169,0 c -0.129,0 -0.207,0.077 -0.207,0.181 l 0,0.93 c 0,3.127 -0.181,7.159 -1.835,10.209 l -0.568,0 c -0.156,0 -0.207,0.077 -0.207,0.207 l 0,3.773 c 0,0.129 0.103,0.181 0.181,0.181 l 1.24,0 c 0.284,0 0.388,-0.207 0.388,-0.388 l 0,-2.145 5.531,0 0,2.352 c 0,0.103 0.077,0.181 0.18,0.181 l 1.318,0 c 0.156,0 0.311,-0.129 0.311,-0.388 l 0,-3.566 c 0,-0.13 -0.078,-0.207 -0.207,-0.207 l 0,0 z m -2.791,0 -3.748,0 c 1.318,-2.249 1.835,-4.781 2.016,-7.883 0.052,-0.672 0.078,-1.37 0.078,-1.809 l 1.654,0 0,9.692 0,0 z"
           id="Fill-5"
           inkscape:connector-curvature="0"
           style="fill:#1a1918" />
        <path
           d="m 33.776,6.735 c -2.792,0 -4.032,3.515 -4.032,7.34 0,3.902 1.757,6.228 4.342,6.228 1.266,0 2.377,-0.491 2.946,-0.853 0.103,-0.051 0.129,-0.129 0.103,-0.232 l -0.206,-0.879 c -0.026,-0.103 -0.078,-0.155 -0.207,-0.155 -0.103,0 -0.853,0.284 -1.913,0.284 -1.99,0 -2.92,-1.731 -2.92,-4.006 l 0,-0.611 c 0,0 1.008,0.12 1.602,0.12 l 3.774,0 0,-1.085 c 0,-4.006 -1.422,-6.151 -3.489,-6.151 l 0,0 z m -0.285,5.608 c -0.594,0 -1.525,0.104 -1.525,0.104 0,-10e-4 0,-0.388 0.052,-0.802 0.233,-2.197 0.775,-3.308 1.68,-3.308 0.827,0 1.344,1.137 1.473,3.127 0.026,0.414 0.026,0.879 0.026,0.879 l -1.706,0 0,0 z"
           id="Fill-6"
           inkscape:connector-curvature="0"
           style="fill:#1a1918" />
      </g>
    </g>
  </g>
</svg>
